<svg id="Layer_1" data-name="Layer 1" xmlns="http://www.w3.org/2000/svg" xmlns:xlink="http://www.w3.org/1999/xlink" viewBox="0 0 174.79 173.42"><defs><style>.cls-1{fill:#fdb515;}.cls-2{fill:url(#radial-gradient);}.cls-3{fill:url(#linear-gradient);}.cls-4{fill:#faf9d4;}.cls-5{fill:#d6eaf2;}.cls-6{fill:#95d8ed;}</style><radialGradient id="radial-gradient" cx="2.12" cy="54.08" r="87.95" gradientTransform="matrix(0.99, 0.16, -0.16, 0.97, 87.21, 19.71)" gradientUnits="userSpaceOnUse"><stop offset="0.02" stop-color="#fff"/><stop offset="0.8" stop-color="#ffcd0c"/><stop offset="1" stop-color="#faac1c"/></radialGradient><linearGradient id="linear-gradient" x1="-7.42" y1="39.16" x2="19.88" y2="74.46" gradientTransform="matrix(0.99, 0.16, -0.16, 0.99, 88.09, 12.72)" gradientUnits="userSpaceOnUse"><stop offset="0" stop-color="#fff"/><stop offset="0.09" stop-color="#fffef8"/><stop offset="0.22" stop-color="#fffae6"/><stop offset="0.38" stop-color="#fff3c7"/><stop offset="0.55" stop-color="#ffeb9c"/><stop offset="0.74" stop-color="#ffdf66"/><stop offset="0.93" stop-color="#ffd224"/><stop offset="1" stop-color="#ffcd0c"/></linearGradient></defs><title>sunicon</title><polygon class="cls-1" points="30.97 66.95 32.72 65.05 32.87 62.42 7.23 54.31 30.97 66.95"/><polygon class="cls-1" points="37.36 53.08 39.49 51.61 40.23 49.09 24.7 40.69 37.36 53.08"/><polygon class="cls-1" points="46.77 42.11 49.2 41.23 50.54 38.97 37.61 26.96 46.77 42.11"/><polygon class="cls-1" points="41.68 47.38 43.96 46.17 44.98 43.74 23.52 27.54 41.68 47.38"/><polygon class="cls-1" points="33.64 59.38 35.65 57.75 36.19 55.17 11.99 43.43 33.64 59.38"/><path class="cls-1" d="M110,40.4c-33.18-5.49-64.6,16.82-70,49.73s17.11,64.14,50.29,69.63,64.6-16.81,70-49.72S143.17,45.89,110,40.4Z" transform="translate(-12.6 -13.29)"/><path class="cls-2" d="M110,43.56A56.76,56.76,0,1,1,44.76,90.29,56.77,56.77,0,0,1,110,43.56Z" transform="translate(-12.6 -13.29)"/><path class="cls-3" d="M91.41,156a57.58,57.58,0,1,1,66.22-47.41A57.64,57.64,0,0,1,91.41,156ZM109.94,44a55.92,55.92,0,1,0,46,64.3A56,56,0,0,0,109.94,44Z" transform="translate(-12.6 -13.29)"/><polygon class="cls-4" points="38.09 51.66 30.55 44.85 39.1 50.3 39.13 51.23 38.09 51.66"/><polygon class="cls-4" points="47.83 40.93 42.22 32.45 49.15 39.86 48.95 40.77 47.83 40.93"/><polygon class="cls-5" points="45.26 43.5 32.81 28.88 46.55 42.33 46.48 43.52 45.26 43.5"/><polygon class="cls-6" points="45.24 42.87 38.88 35.39 45.9 42.27 45.86 42.87 45.24 42.87"/><polygon class="cls-5" points="40.29 48.87 25.93 36.13 41.41 47.53 41.5 48.72 40.29 48.87"/><polygon class="cls-6" points="40.18 48.24 32.84 41.73 40.75 47.56 40.8 48.17 40.18 48.24"/><polygon class="cls-5" points="36.11 54.81 20.88 43.13 37.13 53.39 37.31 54.57 36.11 54.81"/><polygon class="cls-6" points="35.96 54.19 28.17 48.22 36.48 53.46 36.57 54.07 35.96 54.19"/><polygon class="cls-5" points="32.6 61.12 16.27 51.03 33.48 59.6 33.78 60.76 32.6 61.12"/><polygon class="cls-6" points="32.39 60.52 24.04 55.36 32.84 59.75 32.99 60.33 32.39 60.52"/><polygon class="cls-1" points="58.63 33.74 61.19 33.4 62.99 31.48 52.94 16.97 58.63 33.74"/><polygon class="cls-1" points="71.98 28.22 74.55 28.53 76.77 27.12 70.66 10.56 71.98 28.22"/><polygon class="cls-1" points="65.06 30.61 67.64 30.56 69.66 28.86 57.83 4.7 65.06 30.61"/><polygon class="cls-1" points="52.47 37.69 54.99 37.14 56.64 35.08 40.36 13.66 52.47 37.69"/><polygon class="cls-4" points="59.92 32.81 56.27 23.32 61.44 32.05 61.06 32.9 59.92 32.81"/><polygon class="cls-4" points="73.46 27.64 72.3 17.54 75.12 27.28 74.54 28 73.46 27.64"/><polygon class="cls-5" points="70 28.77 65.52 10.1 71.69 28.31 71.09 29.34 70 28.77"/><polygon class="cls-6" points="70.28 28.19 67.98 18.66 71.14 27.96 70.83 28.48 70.28 28.19"/><polygon class="cls-5" points="63.14 31.32 56.1 13.46 64.75 30.63 64.3 31.73 63.14 31.32"/><polygon class="cls-6" points="63.33 30.71 59.73 21.58 64.15 30.36 63.92 30.92 63.33 30.71"/><polygon class="cls-5" points="56.74 34.72 48.43 17.41 58.29 33.92 57.91 35.05 56.74 34.72"/><polygon class="cls-6" points="56.88 34.11 52.64 25.26 57.67 33.69 57.49 34.27 56.88 34.11"/><polygon class="cls-5" points="50.76 38.77 40.75 22.39 52.22 37.81 51.96 38.97 50.76 38.77"/><polygon class="cls-6" points="50.84 38.14 45.72 29.76 51.59 37.65 51.45 38.24 50.84 38.14"/><polygon class="cls-1" points="86.3 26.3 88.72 27.2 91.21 26.35 89.14 8.82 86.3 26.3"/><polygon class="cls-1" points="100.68 27.69 102.8 29.16 105.42 28.96 107.8 11.47 100.68 27.69"/><polygon class="cls-1" points="93.44 26.55 95.75 27.72 98.32 27.17 99.21 0.28 93.44 26.55"/><polygon class="cls-1" points="79.01 26.89 81.49 27.6 83.91 26.55 79.59 0 79.01 26.89"/><polygon class="cls-4" points="87.88 26.09 89.11 15.99 89.57 26.13 88.83 26.69 87.88 26.09"/><polygon class="cls-4" points="102.26 27.87 105.97 18.41 103.89 28.34 103.04 28.7 102.26 27.87"/><polygon class="cls-5" points="98.68 27.25 103.47 8.66 100.38 27.64 99.37 28.26 98.68 27.25"/><polygon class="cls-6" points="99.18 26.87 101.63 17.37 100.05 27.06 99.54 27.39 99.18 26.87"/><polygon class="cls-5" points="91.42 26.28 93.58 7.2 93.17 26.43 92.25 27.18 91.42 26.28"/><polygon class="cls-6" points="91.87 25.83 92.98 16.08 92.76 25.9 92.3 26.29 91.87 25.83"/><polygon class="cls-5" points="84.16 26.28 84.95 7.1 85.91 26.3 85.05 27.13 84.16 26.28"/><polygon class="cls-6" points="84.58 25.8 84.98 16 85.47 25.81 85.03 26.23 84.58 25.8"/><polygon class="cls-5" points="76.99 27.05 75.83 7.88 78.73 26.89 77.95 27.79 76.99 27.05"/><polygon class="cls-6" points="77.35 26.53 76.76 16.73 78.24 26.44 77.85 26.91 77.35 26.53"/><polygon class="cls-1" points="114.35 32.57 116.11 34.47 118.71 34.84 124.79 18.26 114.35 32.57"/><polygon class="cls-1" points="126.56 40.31 127.78 42.58 130.21 43.59 140.23 29.06 126.56 40.31"/><polygon class="cls-1" points="120.61 36.03 122.14 38.11 124.69 38.77 137.63 15.2 120.61 36.03"/><polygon class="cls-1" points="107.58 29.8 109.48 31.55 112.11 31.71 120.25 6.08 107.58 29.8"/><polygon class="cls-4" points="115.86 33.09 121.51 24.65 117.35 33.9 116.44 34.07 115.86 33.09"/><polygon class="cls-4" points="127.88 41.19 135.47 34.42 129.13 42.34 128.21 42.27 127.88 41.19"/><polygon class="cls-5" points="124.97 39 137.65 24.59 126.31 40.13 125.12 40.22 124.97 39"/><polygon class="cls-6" points="125.59 38.9 132.07 31.54 126.28 39.47 125.67 39.52 125.59 38.9"/><polygon class="cls-5" points="118.94 34.86 129.48 18.83 120.42 35.78 119.26 36.05 118.94 34.86"/><polygon class="cls-6" points="119.54 34.67 124.93 26.48 120.31 35.14 119.71 35.27 119.54 34.67"/><polygon class="cls-5" points="112.46 31.58 121.83 14.83 114.01 32.39 112.87 32.74 112.46 31.58"/><polygon class="cls-6" points="113.05 31.34 117.84 22.79 113.84 31.75 113.26 31.94 113.05 31.34"/><polygon class="cls-5" points="105.71 29.02 113.34 11.41 107.33 29.67 106.24 30.13 105.71 29.02"/><polygon class="cls-6" points="106.27 28.73 110.17 19.72 107.1 29.06 106.55 29.29 106.27 28.73"/><polygon class="cls-1" points="136.45 51.04 137.09 53.55 139.21 55.11 152.44 43.43 136.45 51.04"/><polygon class="cls-1" points="143.5 63.66 143.49 66.25 145.15 68.28 160.88 60.28 143.5 63.66"/><polygon class="cls-1" points="140.31 57.06 140.66 59.63 142.58 61.42 165.19 46.85 140.31 57.06"/><polygon class="cls-1" points="131.81 45.38 132.65 47.83 134.88 49.22 154.25 30.55 131.81 45.38"/><polygon class="cls-4" points="137.53 52.22 146.52 47.48 138.45 53.64 137.57 53.35 137.53 52.22"/><polygon class="cls-4" points="144.24 65.06 154.13 62.72 144.79 66.67 144 66.17 144.24 65.06"/><polygon class="cls-5" points="142.71 61.76 160.73 55.12 143.36 63.38 142.28 62.9 142.71 61.76"/><polygon class="cls-6" points="143.32 61.96 152.52 58.57 143.65 62.79 143.1 62.55 143.32 61.96"/><polygon class="cls-5" points="139.38 55.24 156.3 46.16 140.26 56.76 139.11 56.44 139.38 55.24"/><polygon class="cls-6" points="140.01 55.36 148.65 50.72 140.46 56.13 139.87 55.97 140.01 55.36"/><polygon class="cls-5" points="135.25 49.28 151.47 39 136.23 50.72 135.06 50.48 135.25 49.28"/><polygon class="cls-6" points="135.88 49.34 144.17 44.1 136.39 50.08 135.79 49.96 135.88 49.34"/><polygon class="cls-5" points="130.54 43.81 145.64 31.95 131.66 45.15 130.47 45.03 130.54 43.81"/><polygon class="cls-6" points="131.17 43.81 138.89 37.76 131.75 44.5 131.14 44.44 131.17 43.81"/><polygon class="cls-1" points="147.26 77.68 146.7 80.2 147.88 82.56 164.97 78.11 147.26 77.68"/><polygon class="cls-1" points="147.84 92.11 146.67 94.42 147.23 96.99 164.88 96.96 147.84 92.11"/><polygon class="cls-1" points="147.98 84.79 147.14 87.23 148.04 89.71 174.79 86.93 147.98 84.79"/><polygon class="cls-1" points="145.69 70.53 145.33 73.09 146.69 75.34 172.41 67.45 145.69 70.53"/><polygon class="cls-4" points="147.69 79.21 157.86 79.06 147.88 80.89 147.22 80.24 147.69 79.21"/><polygon class="cls-4" points="147.88 93.7 157.76 96.09 147.64 95.38 147.17 94.59 147.88 93.7"/><polygon class="cls-5" points="148.01 90.07 167.08 92.29 147.86 91.81 147.1 90.89 148.01 90.07"/><polygon class="cls-6" points="148.45 90.52 158.2 91.66 148.38 91.41 147.99 90.94 148.45 90.52"/><polygon class="cls-5" points="147.98 82.75 167.17 82.3 148.08 84.5 147.2 83.69 147.98 82.75"/><polygon class="cls-6" points="148.49 83.14 158.3 82.91 148.54 84.03 148.09 83.62 148.49 83.14"/><polygon class="cls-5" points="147 75.56 166.11 73.73 147.22 77.3 146.28 76.55 147 75.56"/><polygon class="cls-6" points="147.52 75.91 157.29 74.98 147.64 76.8 147.16 76.42 147.52 75.91"/><polygon class="cls-5" points="145.26 68.55 164.09 64.81 145.65 70.26 144.65 69.62 145.26 68.55"/><polygon class="cls-6" points="145.82 68.84 155.45 66.93 146.02 69.72 145.51 69.39 145.82 68.84"/><polygon class="cls-1" points="144.96 106.37 143.26 108.33 143.18 110.95 160.32 115.18 144.96 106.37"/><polygon class="cls-1" points="138.6 119.35 136.47 120.82 135.74 123.34 151.28 131.72 138.6 119.35"/><polygon class="cls-1" points="142.21 112.97 140.3 114.72 139.92 117.32 164.77 127.62 142.21 112.97"/><polygon class="cls-1" points="146.97 99.34 145.44 101.42 145.57 104.05 171.94 109.34 146.97 99.34"/><polygon class="cls-4" points="144.6 107.93 153.62 112.63 143.97 109.5 143.7 108.61 144.6 107.93"/><polygon class="cls-4" points="137.87 120.76 145.43 127.57 136.86 122.13 136.83 121.2 137.87 120.76"/><polygon class="cls-5" points="139.72 117.63 155.43 128.66 138.75 119.08 138.53 117.92 139.72 117.63"/><polygon class="cls-6" points="139.9 118.24 147.92 123.88 139.4 118.98 139.29 118.38 139.9 118.24"/><polygon class="cls-5" points="143.18 111.18 160.28 119.91 142.42 112.76 142.04 111.63 143.18 111.18"/><polygon class="cls-6" points="143.44 111.76 152.17 116.22 143.05 112.57 142.86 111.99 143.44 111.76"/><polygon class="cls-5" points="145.73 104.38 163.41 111.87 145.1 106.01 144.63 104.92 145.73 104.38"/><polygon class="cls-6" points="146.03 104.94 155.07 108.77 145.71 105.78 145.47 105.22 146.03 104.94"/><polygon class="cls-5" points="147.54 97.4 165.88 103.06 147.07 99.08 146.5 98.04 147.54 97.4"/><polygon class="cls-6" points="147.89 97.92 157.27 100.82 147.66 98.79 147.36 98.25 147.89 97.92"/><polygon class="cls-1" points="129.22 130.43 126.82 131.4 125.57 133.72 138.94 145.23 129.22 130.43"/><polygon class="cls-1" points="117.69 139.13 115.12 139.48 113.33 141.4 123.41 155.89 117.69 139.13"/><polygon class="cls-1" points="123.78 135.08 121.3 135.77 119.78 137.92 137.29 158.33 123.78 135.08"/><polygon class="cls-1" points="134.2 125.07 131.89 126.23 130.82 128.63 151.94 145.27 134.2 125.07"/><polygon class="cls-4" points="128.21 131.66 134.12 139.92 126.93 132.77 127.09 131.86 128.21 131.66"/><polygon class="cls-4" points="116.4 140.06 120.06 149.55 114.88 140.82 115.26 139.99 116.4 140.06"/><polygon class="cls-5" points="119.46 138.1 128.5 155.04 117.94 138.96 118.27 137.83 119.46 138.1"/><polygon class="cls-6" points="119.34 138.72 123.95 147.38 118.57 139.17 118.73 138.58 119.34 138.72"/><polygon class="cls-5" points="125.46 133.91 136.76 149.43 124.08 134.98 124.24 133.8 125.46 133.91"/><polygon class="cls-6" points="125.43 134.55 131.21 142.48 124.72 135.09 124.81 134.49 125.43 134.55"/><polygon class="cls-5" points="130.81 129.01 143.2 143.67 129.51 130.17 129.59 128.98 130.81 129.01"/><polygon class="cls-6" points="130.83 129.64 137.16 137.13 130.16 130.24 130.2 129.63 130.83 129.64"/><polygon class="cls-5" points="135.58 123.59 149.38 136.93 134.41 124.88 134.36 123.69 135.58 123.59"/><polygon class="cls-6" points="135.66 124.22 142.72 131.04 135.06 124.88 135.04 124.28 135.66 124.22"/><polygon class="cls-1" points="104.31 144.94 101.74 144.7 99.55 146.16 106.11 162.55 104.31 144.94"/><polygon class="cls-1" points="90.07 147.34 87.63 146.46 85.16 147.34 87.41 164.84 90.07 147.34"/><polygon class="cls-1" points="97.35 146.55 94.82 146.02 92.48 147.22 98.6 173.42 97.35 146.55"/><polygon class="cls-1" points="111.2 142.47 108.62 142.44 106.56 144.07 117.63 168.59 111.2 142.47"/><polygon class="cls-4" points="102.85 145.56 104.28 155.62 101.2 145.96 101.76 145.22 102.85 145.56"/><polygon class="cls-4" points="88.49 147.57 87.37 157.67 86.8 147.54 87.53 146.97 88.49 147.57"/><polygon class="cls-5" points="92.12 147.24 92.31 166.44 90.37 147.3 91.19 146.44 92.12 147.24"/><polygon class="cls-6" points="91.72 147.74 91.83 157.55 90.83 147.77 91.25 147.33 91.72 147.74"/><polygon class="cls-5" points="99.37 146.29 102.24 165.27 97.65 146.6 98.34 145.63 99.37 146.29"/><polygon class="cls-6" points="99.05 146.84 100.52 156.54 98.17 147 98.53 146.5 99.05 146.84"/><polygon class="cls-5" points="106.38 144.4 110.61 163.13 104.69 144.84 105.31 143.82 106.38 144.4"/><polygon class="cls-6" points="106.11 144.97 108.26 154.55 105.24 145.2 105.56 144.68 106.11 144.97"/><polygon class="cls-5" points="113.12 141.8 119.21 160.01 111.47 142.4 111.98 141.32 113.12 141.8"/><polygon class="cls-6" points="112.89 142.4 116.01 151.7 112.06 142.71 112.32 142.16 112.89 142.4"/><polygon class="cls-1" points="75.59 146.17 73.41 144.79 70.79 145.12 69.23 162.7 75.59 146.17"/><polygon class="cls-1" points="61.8 141.87 60.03 139.99 57.42 139.66 51.52 156.29 61.8 141.87"/><polygon class="cls-1" points="68.65 144.46 66.64 142.85 64 142.86 57.63 169 68.65 144.46"/><polygon class="cls-1" points="82.85 147.09 80.56 145.89 77.99 146.42 76.78 173.29 82.85 147.09"/><polygon class="cls-4" points="74.01 146.06 70.74 155.69 72.36 145.67 73.19 145.27 74.01 146.06"/><polygon class="cls-4" points="60.29 141.37 54.73 149.88 58.79 140.58 59.7 140.4 60.29 141.37"/><polygon class="cls-5" points="63.67 142.72 55.17 159.93 62.09 141.99 63.2 141.58 63.67 142.72"/><polygon class="cls-6" points="63.1 142.98 58.75 151.78 62.29 142.61 62.86 142.4 63.1 142.98"/><polygon class="cls-5" points="70.58 145.15 64.55 163.38 68.9 144.64 69.95 144.1 70.58 145.15"/><polygon class="cls-6" points="70.04 145.49 66.96 154.81 69.18 145.24 69.72 144.96 70.04 145.49"/><polygon class="cls-5" points="77.68 146.64 72.98 165.25 75.97 146.25 76.98 145.62 77.68 146.64"/><polygon class="cls-6" points="77.17 147.02 74.77 156.53 76.3 146.83 76.81 146.5 77.17 147.02"/><polygon class="cls-5" points="84.86 147.35 82.07 166.34 83.12 147.15 84.07 146.42 84.86 147.35"/><polygon class="cls-6" points="84.4 147.78 82.97 157.49 83.51 147.68 83.99 147.31 84.4 147.78"/><polygon class="cls-1" points="49.39 134.31 48.13 132.05 45.69 131.08 35.87 145.75 49.39 134.31"/><polygon class="cls-1" points="39.35 123.92 38.7 121.42 36.57 119.87 23.41 131.63 39.35 123.92"/><polygon class="cls-1" points="44.11 129.48 43.13 127.09 40.81 125.84 22.67 145.7 44.11 129.48"/><polygon class="cls-1" points="55.31 138.6 53.88 136.45 51.37 135.67 37.4 158.67 55.31 138.6"/><polygon class="cls-4" points="48.05 133.45 40.56 140.32 46.78 132.32 47.71 132.37 48.05 133.45"/><polygon class="cls-4" points="38.27 122.75 29.3 127.53 37.33 121.33 38.21 121.62 38.27 122.75"/><polygon class="cls-5" points="40.59 125.56 24.87 136.57 39.54 124.15 40.72 124.34 40.59 125.56"/><polygon class="cls-6" points="39.95 125.51 31.92 131.14 39.42 124.8 40.02 124.89 39.95 125.51"/><polygon class="cls-5" points="45.47 131 31.45 144.11 44.25 129.76 45.44 129.78 45.47 131"/><polygon class="cls-6" points="44.84 131.05 37.67 137.74 44.21 130.41 44.82 130.42 44.84 131.05"/><polygon class="cls-5" points="50.99 135.72 37.94 149.79 49.68 134.57 50.86 134.5 50.99 135.72"/><polygon class="cls-6" points="50.36 135.81 43.69 143 49.69 135.22 50.3 135.19 50.36 135.81"/><polygon class="cls-5" points="56.95 139.8 45.37 155.11 55.52 138.78 56.7 138.59 56.95 139.8"/><polygon class="cls-6" points="56.33 139.95 50.42 147.78 55.6 139.44 56.2 139.34 56.33 139.95"/><polygon class="cls-1" points="32.12 111.32 32.03 108.74 30.28 106.77 14.9 115.42 32.12 111.32"/><polygon class="cls-1" points="27.88 97.52 28.42 94.99 27.23 92.64 10.17 97.19 27.88 97.52"/><polygon class="cls-1" points="29.61 104.63 29.8 102.05 28.3 99.89 3.14 109.41 29.61 104.63"/><polygon class="cls-1" points="35.48 117.83 35.16 115.26 33.27 113.44 10.43 127.64 35.48 117.83"/><polygon class="cls-4" points="31.32 109.95 21.53 112.7 30.71 108.37 31.51 108.83 31.32 109.95"/><polygon class="cls-4" points="27.43 95.99 17.27 96.2 27.24 94.3 27.9 94.95 27.43 95.99"/><polygon class="cls-5" points="28.24 99.53 9.23 102.25 27.94 97.82 28.9 98.51 28.24 99.53"/><polygon class="cls-6" points="27.69 99.21 17.98 100.6 27.54 98.33 28.03 98.69 27.69 99.21"/><polygon class="cls-5" points="30.13 106.6 11.69 111.94 29.6 104.94 30.65 105.49 30.13 106.6"/><polygon class="cls-6" points="29.54 106.36 20.12 109.09 29.27 105.51 29.81 105.8 29.54 106.36"/><polygon class="cls-5" points="32.92 113.3 14.92 119.96 32.27 111.68 33.37 112.16 32.92 113.3"/><polygon class="cls-6" points="32.32 113.11 23.12 116.5 31.98 112.27 32.55 112.51 32.32 113.11"/><polygon class="cls-5" points="36.39 119.63 19.15 128.06 35.58 118.09 36.71 118.45 36.39 119.63"/><polygon class="cls-6" points="35.77 119.49 26.96 123.8 35.36 118.7 35.93 118.89 35.77 119.49"/><polygon class="cls-1" points="26.79 83.43 27.9 81.11 27.27 78.55 9.63 79.08 26.79 83.43"/><polygon class="cls-1" points="29.43 69.23 31.08 67.25 31.11 64.62 13.9 60.72 29.43 69.23"/><polygon class="cls-1" points="27.66 76.34 29.03 74.14 28.7 71.53 2 68.29 27.66 76.34"/><polygon class="cls-1" points="26.74 90.75 27.65 88.34 26.82 85.84 0 87.82 26.74 90.75"/><polygon class="cls-4" points="26.71 81.85 16.76 79.74 26.9 80.16 27.4 80.95 26.71 81.85"/><polygon class="cls-4" points="29.75 67.67 20.64 63.15 30.36 66.09 30.64 66.97 29.75 67.67"/><polygon class="cls-5" points="28.81 71.19 10.71 64.79 29.35 69.53 29.88 70.59 28.81 71.19"/><polygon class="cls-6" points="28.48 70.65 19.24 67.38 28.75 69.8 29.02 70.35 28.48 70.65"/><polygon class="cls-5" points="27.21 78.33 8.4 74.51 27.51 76.61 28.18 77.59 27.21 78.33"/><polygon class="cls-6" points="26.8 77.84 17.19 75.89 26.96 76.96 27.3 77.46 26.8 77.84"/><polygon class="cls-5" points="26.58 85.56 7.54 83.1 26.75 83.83 27.5 84.75 26.58 85.56"/><polygon class="cls-6" points="26.14 85.11 16.41 83.84 26.22 84.22 26.61 84.68 26.14 85.11"/><polygon class="cls-5" points="26.71 92.78 7.52 92.25 26.7 91.03 27.54 91.88 26.71 92.78"/><polygon class="cls-6" points="26.23 92.36 16.42 92.1 26.22 91.48 26.65 91.91 26.23 92.36"/></svg>