<svg xmlns="http://www.w3.org/2000/svg" viewBox="0 0 700 700"><defs><style>.cls-1{fill:none;}.cls-2{fill:#3b435e;}.cls-3{stroke:#3b435e;stroke-miterlimit:10;stroke-width:3px;}.cls-4{font-size:77.17px;letter-spacing:-0.06em;}.cls-4,.cls-6{fill:#3b445e;font-family:AbrilFatface-Regular, Abril Fatface;}.cls-5{letter-spacing:0em;}.cls-6{font-size:56.01px;}.cls-7{font-size:100px;}.cls-8{letter-spacing:-0.01em;}</style></defs><title>temple-logo</title><g id="Layer_2" data-name="Layer 2"><path class="cls-1" d="M189,516.19h-7V534.3q2.55,2.06,4.39,3.83A122.85,122.85,0,0,0,189,516.19Z"/><path class="cls-1" d="M168.67,610.26q7.37,0,11.35-7.07c.15-.28.29-.57.44-.86H163.25Q160.58,610.25,168.67,610.26Z"/><path class="cls-1" d="M126.17,559.63V528.2q-1.68,5.32-1.68,18A46.77,46.77,0,0,0,126.17,559.63Z"/><path class="cls-1" d="M182,575.34v21h.72A41.25,41.25,0,0,0,184,585.76,29.15,29.15,0,0,0,182,575.34Z"/><path class="cls-2" d="M130.35,567.43q5.86,6.47,17.88,6.46,15.93,0,25.25-12.32-6.91-7.22-19.39-15.63-21.48-14.13-27.35-19.24a14,14,0,0,0-.57,1.5v31.43A20.23,20.23,0,0,0,130.35,567.43Z"/><path class="cls-2" d="M157,504q1.59-4.65,1.58-13.67,0-17.73-13.07-17.73a14.4,14.4,0,0,0-9.77,3.53c-2.7,2.35-4.06,6.09-4.06,11.19s1.21,9.32,3.61,12.63,7,7.31,13.82,12Q155.45,508.68,157,504Z"/><path class="cls-2" d="M168.59,474.86A17.12,17.12,0,0,1,176,489.44q0,15.93-24.19,24.34,3,2,11,6.91A229.93,229.93,0,0,1,182,534.3V516.19h-4.93v-3H182V407.9h3.44q18.31,0,28.06,13.88t22.34,52h5.44l-2.87-71.88H69.48l-2.87,71.88h5.44q12-36.94,22-51.4t28.35-14.46h3.72v65.93a43.85,43.85,0,0,1,20.11-4.38Q161.16,469.45,168.59,474.86Z"/><path class="cls-2" d="M148.46,589.59a12.12,12.12,0,0,1,8.94-3.53q12,0,12,10.82a20.23,20.23,0,0,1-.9,5.41h-5.26v0h17.21a29.08,29.08,0,0,0,2.27-6H182v-21a43.63,43.63,0,0,0-6-10.62q-11.42,13.08-31.4,13.08A85.86,85.86,0,0,1,126.17,576v20.33H101.83v6h43.41a13.61,13.61,0,0,1-.31-2.89Q144.93,593.13,148.46,589.59Z"/><path class="cls-2" d="M191.51,601.09c-.38.43-.77.83-1.15,1.24h16v-6H195.29A48.75,48.75,0,0,1,191.51,601.09Z"/><polygon class="cls-2" points="50.79 492.54 56.51 492.54 56.51 561.39 50.79 561.39 50.79 563.36 82.51 563.36 82.51 561.39 76.79 561.39 76.79 492.54 82.51 492.54 82.51 490.56 50.79 490.56 50.79 492.54"/><path class="cls-2" d="M266.15,527.69a14.31,14.31,0,0,0-3.17-4,32.64,32.64,0,0,0-3.85-3,24.31,24.31,0,0,0-4.68-2.29q-2.87-1.1-4.78-1.71c-1.29-.42-4-1.18-8.06-2.29a38,38,0,0,1-10.35-4.32,8.45,8.45,0,0,1-4.21-7.59,9.77,9.77,0,0,1,3.53-7.9q3.54-3,9.93-3t11.86,5.46a64.62,64.62,0,0,1,10.45,14.51h1.67l-.73-21h-1.15c-.76,1.39-1.63,2.08-2.6,2.08a41.67,41.67,0,0,1-7.43-1.61,44.35,44.35,0,0,0-11.49-1.61q-11.44,0-18.05,6.65a21.83,21.83,0,0,0-6.6,15.92q0,11.32,6.45,16.74a30.62,30.62,0,0,0,6.81,4.37,83.91,83.91,0,0,0,11.54,3.9q8,2.24,12.27,5.25a10,10,0,0,1,4.32,8.69q0,5.65-4,8.47a15.66,15.66,0,0,1-9.21,2.81q-7.91,0-15-6.76a57.21,57.21,0,0,1-11.7-15.81h-1.76l1,24.75h1.45c.9-2.08,1.84-3.12,2.81-3.12q.82,0,8.48,1.56a68.72,68.72,0,0,0,13.57,1.56q11.43,0,18.46-6.81t7-18A23.84,23.84,0,0,0,266.15,527.69Z"/><path class="cls-2" d="M189,516.19a122.85,122.85,0,0,1-2.56,21.94q-1.85-1.77-4.39-3.83v41a29.15,29.15,0,0,1,2,10.42,41.25,41.25,0,0,1-1.27,10.56h12.56a41.48,41.48,0,0,0,7.64-24.23q0-10.07-3.3-16.68a64.72,64.72,0,0,0-9.77-13.83,127.8,127.8,0,0,0,2.85-25.39h10.52v-3H182v3Z"/><path class="cls-2" d="M180,603.19q-4,7.06-11.35,7.07-8.1,0-5.42-7.93h-18a12.72,12.72,0,0,0,5.1,7.48q5.4,4.05,15.17,4.05,13.85,0,24.85-11.53h-9.9C180.31,602.62,180.17,602.91,180,603.19Z"/><path class="cls-2" d="M124.49,546.24q0-12.72,1.68-18V473.83a34.42,34.42,0,0,0-4.76,2.91q-10,7.29-10,21.49t13.22,26.22q-12.78,2.87-18.18,9t-5.41,16.23q0,14.56,11.79,21.33a47.13,47.13,0,0,0,13.33,5V559.63A46.77,46.77,0,0,1,124.49,546.24Z"/><line class="cls-3" x1="296.29" y1="409.37" x2="296.29" y2="606.37"/><text class="cls-4" transform="translate(365.96 483.73)">T<tspan class="cls-5" x="48.07" y="0">emple</tspan></text><text class="cls-6" transform="translate(323.62 568.5)">Inn <tspan class="cls-7" x="98.98" y="0">&amp;</tspan><tspan x="181.17" y="0"> </tspan><tspan class="cls-8" x="191.26" y="0">S</tspan><tspan x="224.3" y="0">uit</tspan><tspan class="cls-8" x="298.02" y="0">e</tspan><tspan x="326.36" y="0">s</tspan></text></g></svg>